<?xml version="1.0" standalone="no"?>
<!DOCTYPE svg PUBLIC "-//W3C//DTD SVG 20010904//EN"
 "http://www.w3.org/TR/2001/REC-SVG-20010904/DTD/svg10.dtd">
<svg version="1.0" xmlns="http://www.w3.org/2000/svg"
 width="200.000000pt" height="200.000000pt" viewBox="0 0 200.000000 200.000000"
 preserveAspectRatio="xMidYMid meet">
<metadata>
Created by potrace 1.11, written by Peter Selinger 2001-2013
</metadata>
<g transform="translate(0.000000,200.000000) scale(0.100000,-0.100000)"
fill="#000000" stroke="none">
<path d="M70 1986 c-14 -8 -35 -31 -47 -53 -21 -38 -21 -39 -20 -930 0 -980
-3 -930 61 -976 l31 -22 890 -2 c577 -1 902 2 923 9 39 12 80 50 87 81 3 12 4
430 3 929 l-3 908 -33 32 -32 33 -918 2 c-763 2 -921 0 -942 -11z"/>
</g>
</svg>
